<?xml version="1.0" standalone="no"?>
<!DOCTYPE svg PUBLIC "-//W3C//DTD SVG 20010904//EN"
 "http://www.w3.org/TR/2001/REC-SVG-20010904/DTD/svg10.dtd">
<svg version="1.0" xmlns="http://www.w3.org/2000/svg"
 width="1000.000000pt" height="1000.000000pt" viewBox="0 0 1000.000000 1000.000000"
 preserveAspectRatio="xMidYMid meet">
<metadata>
Created by potrace 1.11, written by Peter Selinger 2001-2013
</metadata>
<g transform="translate(0.000000,1000.000000) scale(0.100000,-0.100000)"
fill="#000000" stroke="none">
<path d="M4719 9996 c-2 -2 -49 -6 -104 -10 -55 -3 -116 -8 -135 -11 -19 -2
-57 -7 -85 -10 -51 -6 -68 -9 -145 -20 -125 -18 -144 -22 -285 -51 -130 -27
-269 -62 -380 -96 -38 -12 -74 -22 -80 -24 -37 -8 -246 -83 -380 -137 -526
-212 -1018 -517 -1445 -897 -100 -88 -313 -300 -389 -385 -30 -33 -66 -73 -80
-90 -15 -16 -47 -55 -72 -85 -24 -30 -47 -57 -50 -60 -11 -10 -128 -168 -188
-253 -177 -254 -353 -564 -476 -842 -14 -33 -30 -69 -36 -80 -38 -82 -172
-460 -180 -510 -1 -5 -5 -20 -10 -33 -29 -75 -116 -455 -134 -587 -4 -22 -11
-69 -16 -105 -6 -36 -13 -87 -15 -115 -3 -27 -7 -61 -9 -74 -20 -114 -28 -723
-12 -911 11 -128 24 -248 33 -295 2 -11 6 -39 9 -62 9 -74 16 -115 46 -263
169 -825 551 -1603 1106 -2251 127 -148 387 -408 532 -532 506 -432 1080 -756
1711 -963 96 -32 360 -106 420 -118 14 -3 59 -13 100 -21 41 -9 84 -18 95 -19
11 -2 52 -9 90 -16 39 -6 85 -13 104 -16 19 -2 46 -6 60 -9 24 -3 73 -10 156
-20 220 -27 903 -27 1042 -1 10 2 47 7 83 11 36 4 72 9 81 10 9 2 39 6 67 10
47 6 281 48 327 59 274 64 563 151 720 216 11 5 56 23 100 40 220 88 539 251
735 375 374 237 615 430 922 737 397 399 698 823 952 1343 130 267 239 556
321 854 19 69 37 141 40 160 3 19 8 38 10 42 6 9 61 299 69 364 4 28 9 57 11
65 2 8 7 44 10 80 4 36 8 81 11 100 26 225 26 892 0 1026 -2 12 -7 47 -10 79
-9 83 -42 289 -60 381 -162 804 -505 1535 -1020 2174 -60 74 -72 88 -190 219
-93 104 -302 308 -416 406 -58 50 -110 95 -116 100 -6 6 -63 49 -125 97 -505
387 -1076 672 -1696 847 -62 18 -122 34 -134 36 -11 2 -28 6 -37 9 -9 3 -28 8
-42 10 -39 9 -122 26 -150 31 -50 11 -316 54 -360 59 -89 10 -166 19 -205 22
-52 6 -691 14 -696 10z"/>
</g>
</svg>
